# xmcd
#
# Track frame offsets:
#	150
#	16129
#	38031
#	55489
#	71999
#	85164
#	98408
#	113583
#	129342
#	148398
#
# Disc length: 2210
#
# Revision: 1
# Processed by: cddbd v1.5.1PL0 Copyright (c) Steve Scherf et al.
# Submitted via: CDex 1.50
# Normalized: r0:TDELIM( - )
#
DISCID=8308a00a
DTITLE=Various Artist - Cool Country Hits Volume 5
DYEAR=2003
DGENRE=Country
TTITLE0=Steve Holy - Good Morning Beautiful
TTITLE1=Wynonna - To Be Loved By You
TTITLE2=LeAnn Rimes - Unchained Melody
TTITLE3=Sawyer Brown - Treat Her Right
TTITLE4=Hank Williams Jr. - I'm For Love
TTITLE5=Hal Ketchum - Stay Forever
TTITLE6=Jeff Carson - Not On Your Love
TTITLE7=David Kersh - Goodnight Sweetheart
TTITLE8=Desert Rose Band - I Still Believe In You
TTITLE9=Jo Dee Messina - Because You Love Me
EXTD=YEAR: 2003
EXTT0=
EXTT1=
EXTT2=
EXTT3=
EXTT4=
EXTT5=
EXTT6=
EXTT7=
EXTT8=
EXTT9=
PLAYORDER=
